# xmcd
#
# Track frame offsets: 
#        150
#        25998
#        41155
#        61501
#        93600
#        115683
#        137423
#        160130
#        185916
#        204077
#        236207
#        250569
#
# Disc length: 3727 seconds
#
# Revision: 0
# Processed by: cddbd v1.5.1PL2 Copyright (c) Steve Scherf et al.
# Submitted via: ExactAudioCopy v0.95b3
#
DISCID=9a0e8d0c
DTITLE=Albert Castiglia - The Bittersweet Sessions
DYEAR=2005
DGENRE=Blues
TTITLE0=Ghosts of Mississippi
TTITLE1=Ain't no way to get Along
TTITLE2=32/20
TTITLE3=Sweet Home Chicago
TTITLE4=Pretty Thing
TTITLE5=Blow wind Blow
TTITLE6=Ticket Agent Blues
TTITLE7=Sitting on top of the World
TTITLE8=Prescription for the Blues
TTITLE9=The Sky is Crying
TTITLE10=3 Fingered Fellers Named Shorty
TTITLE11=I Shall Be Released
EXTD=
EXTT0=
EXTT1=
EXTT2=
EXTT3=
EXTT4=
EXTT5=
EXTT6=
EXTT7=
EXTT8=
EXTT9=
EXTT10=
EXTT11=
PLAYORDER=
